<svg width="48" height="19" viewBox="0 0 48 19" fill="none" xmlns="http://www.w3.org/2000/svg">
<path d="M2.84 15.064C2.536 14.968 2.304 14.776 2.144 14.488C2 14.2 1.928 13.848 1.928 13.432C1.928 12.68 2.128 11.76 2.528 10.672C2.944 9.584 3.472 8.464 4.112 7.312C4.592 6.448 5.104 5.624 5.648 4.84C6.208 4.04 6.752 3.328 7.28 2.704C7.824 2.08 8.312 1.592 8.744 1.24C9.192 0.872 9.56 0.688 9.848 0.688C10.12 0.688 10.336 0.792 10.496 1C10.656 1.208 10.808 1.44 10.952 1.696C11.096 1.952 11.272 2.144 11.48 2.272C11.496 2.304 11.504 2.344 11.504 2.392C11.504 2.44 11.504 2.48 11.504 2.512C11.504 2.928 11.36 3.384 11.072 3.88C10.8 4.376 10.44 4.88 9.992 5.392C9.56 5.904 9.096 6.4 8.6 6.88C8.104 7.344 7.632 7.776 7.184 8.176C6.736 8.56 6.376 8.872 6.104 9.112C5.432 9.704 4.816 10.296 4.256 10.888C3.696 11.48 3.288 11.952 3.032 12.304C2.952 12.384 2.904 12.424 2.888 12.424C2.856 12.424 2.84 12.392 2.84 12.328C2.84 12.232 2.864 12.152 2.912 12.088C3.152 11.752 3.52 11.32 4.016 10.792C4.528 10.264 5.04 9.728 5.552 9.184C5.728 9.008 6.016 8.72 6.416 8.32C6.832 7.92 7.296 7.456 7.808 6.928C8.32 6.384 8.816 5.832 9.296 5.272C9.776 4.712 10.168 4.192 10.472 3.712C10.792 3.216 10.952 2.824 10.952 2.536C10.952 2.36 10.904 2.24 10.808 2.176C10.728 2.112 10.624 2.08 10.496 2.08C10.24 2.08 9.928 2.208 9.56 2.464C9.208 2.72 8.832 3.048 8.432 3.448C8.048 3.832 7.672 4.24 7.304 4.672C6.936 5.088 6.616 5.464 6.344 5.8C6.088 6.136 5.904 6.368 5.792 6.496C5.2 7.184 4.64 7.984 4.112 8.896C3.6 9.792 3.16 10.656 2.792 11.488C2.696 11.712 2.584 12.032 2.456 12.448C2.344 12.864 2.288 13.272 2.288 13.672C2.288 13.944 2.328 14.2 2.408 14.44C2.504 14.664 2.68 14.824 2.936 14.92C3.048 14.968 3.104 15 3.104 15.016C3.104 15.032 3.072 15.048 3.008 15.064C2.944 15.08 2.888 15.08 2.84 15.064ZM13.064 18.712C13.048 18.728 13.008 18.728 12.944 18.712C12.896 18.712 12.904 18.68 12.968 18.616C13.144 18.472 13.304 18.288 13.448 18.064C13.592 17.84 13.664 17.592 13.664 17.32C13.664 16.968 13.512 16.688 13.208 16.48C12.904 16.288 12.496 16.152 11.984 16.072C11.488 15.992 10.952 15.952 10.376 15.952C9.784 15.952 9.192 15.976 8.6 16.024C8.024 16.088 7.512 16.152 7.064 16.216C6.616 16.28 6.296 16.336 6.104 16.384C5.56 16.48 5.008 16.576 4.448 16.672C3.888 16.768 3.328 16.816 2.768 16.816C2.272 16.816 1.816 16.76 1.4 16.648C1 16.536 0.688 16.328 0.464 16.024C0.272 15.752 0.176 15.448 0.176 15.112C0.176 14.92 0.216 14.736 0.296 14.56C0.376 14.384 0.504 14.24 0.68 14.128H0.728C0.76 14.128 0.784 14.152 0.8 14.2C0.832 14.232 0.816 14.272 0.752 14.32C0.56 14.464 0.464 14.648 0.464 14.872C0.464 15.048 0.528 15.216 0.656 15.376C0.912 15.648 1.248 15.84 1.664 15.952C2.096 16.064 2.576 16.12 3.104 16.12C3.776 16.12 4.496 16.064 5.264 15.952C6.048 15.824 6.824 15.688 7.592 15.544C8.36 15.384 9.072 15.248 9.728 15.136C10.4 15.008 10.96 14.944 11.408 14.944C12.112 14.944 12.696 15.056 13.16 15.28C13.64 15.504 13.88 15.952 13.88 16.624C13.88 16.688 13.872 16.76 13.856 16.84C13.856 16.936 13.848 17.032 13.832 17.128C13.976 17.288 14.048 17.464 14.048 17.656C14.048 17.768 14.016 17.888 13.952 18.016C13.888 18.144 13.784 18.248 13.64 18.328C13.592 18.344 13.496 18.4 13.352 18.496C13.208 18.608 13.112 18.68 13.064 18.712ZM15.3764 16.072C15.0244 16.072 14.7524 15.992 14.5604 15.832C14.3844 15.672 14.3124 15.464 14.3444 15.208C14.3764 15.032 14.4244 14.832 14.4884 14.608C14.5524 14.384 14.6324 14.16 14.7284 13.936L15.3044 12.592C15.2884 12.56 15.2724 12.536 15.2564 12.52C15.2564 12.488 15.2564 12.464 15.2564 12.448C15.2404 12.384 15.2484 12.328 15.2804 12.28C15.6964 11.64 16.0804 11.104 16.4324 10.672C16.7844 10.24 17.0164 10.024 17.1284 10.024C17.3524 10.024 17.6164 10.176 17.9204 10.48C17.7124 10.736 17.4964 11.024 17.2724 11.344C17.0484 11.648 16.8324 11.96 16.6244 12.28C16.4004 12.616 16.1604 12.984 15.9044 13.384C15.6644 13.768 15.4964 14.12 15.4004 14.44C15.3044 14.728 15.2564 14.952 15.2564 15.112C15.2564 15.336 15.3364 15.448 15.4964 15.448C15.7044 15.448 16.0084 15.232 16.4084 14.8C16.6804 14.512 16.9764 14.16 17.2964 13.744C17.6324 13.312 17.9524 12.88 18.2564 12.448C18.5764 12 18.8724 11.584 19.1444 11.2C19.4324 10.8 19.6724 10.48 19.8644 10.24C20.0404 10.016 20.2004 9.904 20.3444 9.904C20.5524 9.904 20.7924 10.08 21.0644 10.432C20.8404 10.752 20.5684 11.168 20.2484 11.68C19.9284 12.176 19.6324 12.688 19.3604 13.216C19.1044 13.728 18.9364 14.184 18.8564 14.584C18.8404 14.648 18.8244 14.712 18.8084 14.776C18.8084 14.84 18.8084 14.912 18.8084 14.992C18.8084 15.456 18.9284 15.688 19.1684 15.688C19.2964 15.688 19.4484 15.616 19.6244 15.472C19.8164 15.328 20.0004 15.16 20.1764 14.968C20.3524 14.776 20.4884 14.616 20.5844 14.488C21.0964 13.8 21.5844 13.088 22.0484 12.352C22.1444 12.208 22.2084 12.136 22.2404 12.136C22.2724 12.136 22.2804 12.168 22.2644 12.232C22.2644 12.28 22.2564 12.32 22.2404 12.352C21.9204 12.88 21.5444 13.456 21.1124 14.08C20.6964 14.704 20.2804 15.216 19.8644 15.616C19.6404 15.84 19.4164 15.952 19.1924 15.952C18.7604 15.952 18.4404 15.848 18.2324 15.64C18.0244 15.432 17.9204 15.2 17.9204 14.944C17.9204 14.784 17.9444 14.616 17.9924 14.44C18.0404 14.248 18.0964 14.056 18.1604 13.864L18.8084 12.16C18.5684 12.464 18.3684 12.72 18.2084 12.928C18.0484 13.12 17.9044 13.304 17.7764 13.48C17.6644 13.64 17.5364 13.824 17.3924 14.032C17.2484 14.224 17.0964 14.416 16.9364 14.608C16.6324 15.008 16.3364 15.352 16.0484 15.64C15.7604 15.928 15.5364 16.072 15.3764 16.072ZM25.3642 16.312C24.9482 16.312 24.6522 16.192 24.4762 15.952C24.3162 15.696 24.2362 15.4 24.2362 15.064C24.2362 14.68 24.2922 14.296 24.4042 13.912C24.5322 13.512 24.6682 13.152 24.8122 12.832C24.9722 12.496 25.1002 12.24 25.1962 12.064C25.4682 11.552 25.6042 11.216 25.6042 11.056C25.6042 10.88 25.5242 10.824 25.3642 10.888C25.2362 10.936 25.0602 11.072 24.8362 11.296C24.6122 11.52 24.3802 11.776 24.1402 12.064C23.9002 12.352 23.6842 12.616 23.4922 12.856C23.3162 13.096 23.2042 13.256 23.1562 13.336C22.7082 13.976 22.3962 14.504 22.2202 14.92C22.0442 15.336 21.9162 15.64 21.8362 15.832C21.8042 15.912 21.7162 15.952 21.5722 15.952C21.4282 15.952 21.2842 15.896 21.1402 15.784C20.9962 15.656 20.9242 15.472 20.9242 15.232C20.9242 15.104 20.9962 14.88 21.1402 14.56C21.2842 14.224 21.4602 13.832 21.6682 13.384C21.8602 12.952 22.0522 12.52 22.2442 12.088C22.4362 11.64 22.5882 11.288 22.7002 11.032C22.5882 10.936 22.5322 10.864 22.5322 10.816C22.5322 10.768 22.5402 10.728 22.5562 10.696C22.5882 10.616 22.6522 10.488 22.7482 10.312C22.8442 10.12 22.9402 9.936 23.0362 9.76C23.1322 9.568 23.1962 9.448 23.2282 9.4C23.2762 9.368 23.3962 9.312 23.5882 9.232C23.7962 9.152 23.9962 9.112 24.1882 9.112H24.2842C24.4762 9.112 24.5722 9.168 24.5722 9.28C24.5722 9.392 24.5162 9.536 24.4042 9.712C24.3562 9.792 24.2442 10 24.0682 10.336C23.8922 10.656 23.6922 11.024 23.4682 11.44C23.2442 11.856 23.0362 12.256 22.8442 12.64C22.6682 13.008 22.5402 13.288 22.4602 13.48C22.4122 13.624 22.3882 13.768 22.3882 13.912C22.4042 14.04 22.4442 14.056 22.5082 13.96C22.9562 13.288 23.3722 12.712 23.7562 12.232C24.1402 11.752 24.5242 11.304 24.9082 10.888C25.2922 10.472 25.7162 10.04 26.1802 9.592C26.3402 9.656 26.5082 9.688 26.6842 9.688C26.8602 9.688 27.0122 9.736 27.1402 9.832C27.2042 9.88 27.2362 9.96 27.2362 10.072C27.2362 10.296 27.1002 10.632 26.8282 11.08C26.5722 11.512 26.2842 12 25.9642 12.544C25.7242 12.96 25.4842 13.44 25.2442 13.984C25.0042 14.528 24.8842 15 24.8842 15.4C24.8842 15.608 24.9162 15.784 24.9802 15.928C25.0602 16.056 25.1802 16.12 25.3402 16.12C25.4842 16.12 25.6442 16.064 25.8202 15.952C25.9482 15.872 26.2282 15.608 26.6602 15.16C27.0922 14.696 27.5642 14.072 28.0762 13.288C28.1242 13.24 28.1562 13.216 28.1722 13.216C28.2042 13.216 28.2202 13.232 28.2202 13.264C28.2202 13.296 28.1962 13.36 28.1482 13.456C27.6202 14.352 27.0922 15.056 26.5642 15.568C26.0522 16.064 25.6522 16.312 25.3642 16.312ZM29.021 16.264C28.781 16.264 28.557 16.184 28.349 16.024C28.141 15.864 27.973 15.68 27.845 15.472C27.717 15.264 27.653 15.088 27.653 14.944C27.653 14.4 27.821 13.832 28.157 13.24C28.493 12.632 28.917 12.064 29.429 11.536C29.957 11.008 30.509 10.584 31.085 10.264C31.661 9.928 32.197 9.76 32.693 9.76C32.773 9.76 32.853 9.776 32.933 9.808C33.013 9.84 33.117 9.912 33.245 10.024C33.885 8.696 34.589 7.392 35.357 6.112C36.125 4.816 36.869 3.744 37.589 2.896C38.213 2.144 38.845 1.568 39.485 1.168C40.141 0.751999 40.813 0.463999 41.501 0.303999C41.981 0.175999 42.477 0.111999 42.989 0.111999C43.069 0.111999 43.157 0.111999 43.253 0.111999C43.349 0.111999 43.437 0.119999 43.517 0.136C43.677 0.151999 43.861 0.199999 44.069 0.279999C44.277 0.359999 44.397 0.447999 44.429 0.543999C44.461 0.607999 44.461 0.647999 44.429 0.663999C44.397 0.679999 44.357 0.664 44.309 0.615999C44.197 0.52 44.053 0.455999 43.877 0.423999C43.717 0.375999 43.541 0.352 43.349 0.352C43.045 0.352 42.741 0.392 42.437 0.472C42.133 0.552 41.893 0.631999 41.717 0.711999C41.189 0.984 40.645 1.368 40.085 1.864C39.525 2.344 38.973 2.896 38.429 3.52C37.645 4.416 36.901 5.392 36.197 6.448C35.509 7.504 34.893 8.56 34.349 9.616C33.821 10.672 33.405 11.656 33.101 12.568C32.813 13.48 32.669 14.248 32.669 14.872C32.669 14.968 32.669 15.064 32.669 15.16C32.685 15.24 32.701 15.32 32.717 15.4C32.765 15.608 32.845 15.752 32.957 15.832C33.069 15.912 33.197 15.952 33.341 15.952C33.501 15.952 33.653 15.92 33.797 15.856C33.957 15.776 34.093 15.688 34.205 15.592C34.509 15.32 34.853 14.928 35.237 14.416C35.637 13.904 36.013 13.392 36.365 12.88C36.429 12.8 36.469 12.776 36.485 12.808C36.501 12.84 36.493 12.872 36.461 12.904C36.397 13.016 36.253 13.24 36.029 13.576C35.805 13.912 35.549 14.272 35.261 14.656C34.989 15.04 34.725 15.36 34.469 15.616C34.053 16.032 33.629 16.24 33.197 16.24C32.877 16.24 32.605 16.104 32.381 15.832C32.157 15.56 32.045 15.176 32.045 14.68C32.045 14.52 32.061 14.256 32.093 13.888C32.125 13.52 32.173 13.208 32.237 12.952C31.869 13.56 31.485 14.12 31.085 14.632C30.701 15.128 30.325 15.528 29.957 15.832C29.605 16.12 29.293 16.264 29.021 16.264ZM28.853 15.952C28.997 15.952 29.157 15.888 29.333 15.76C29.621 15.536 29.941 15.232 30.293 14.848C30.661 14.464 31.021 14.056 31.373 13.624C31.741 13.176 32.061 12.752 32.333 12.352C32.413 12.096 32.525 11.792 32.669 11.44C32.813 11.088 32.941 10.768 33.053 10.48C32.845 10.448 32.605 10.48 32.333 10.576C32.077 10.656 31.893 10.728 31.781 10.792C31.349 11.048 30.893 11.408 30.413 11.872C29.949 12.32 29.533 12.808 29.165 13.336C28.797 13.848 28.525 14.344 28.349 14.824C28.301 14.936 28.277 15.064 28.277 15.208C28.277 15.4 28.325 15.576 28.421 15.736C28.533 15.88 28.677 15.952 28.853 15.952ZM37.6612 16.312C37.2292 16.312 36.8292 16.16 36.4612 15.856C36.1092 15.536 35.9332 15.072 35.9332 14.464C35.9332 13.984 36.0612 13.464 36.3172 12.904C36.5732 12.344 36.9012 11.808 37.3012 11.296C37.7172 10.784 38.1572 10.36 38.6212 10.024C39.0852 9.688 39.5172 9.512 39.9172 9.496C39.9812 9.56 40.0532 9.608 40.1332 9.64C40.2292 9.672 40.3172 9.704 40.3972 9.736L41.0212 9.88C41.3732 9.976 41.5492 10.2 41.5492 10.552C41.5492 10.76 41.4772 10.984 41.3332 11.224C41.2052 11.464 41.0052 11.672 40.7332 11.848C40.5892 11.944 40.4292 12.04 40.2532 12.136C40.0932 12.232 39.9252 12.328 39.7492 12.424L38.6692 13C38.3332 13.176 38.0372 13.368 37.7812 13.576C37.5252 13.768 37.3412 13.976 37.2292 14.2C37.2292 14.2 37.2052 14.208 37.1572 14.224C37.1252 14.224 37.1172 14.192 37.1332 14.128C37.2452 13.856 37.4612 13.584 37.7812 13.312C38.1172 13.024 38.4532 12.776 38.7892 12.568C38.9492 12.44 39.1092 12.328 39.2692 12.232C39.4452 12.136 39.6132 12.032 39.7732 11.92C39.9332 11.808 40.0852 11.696 40.2292 11.584C40.3892 11.456 40.5252 11.336 40.6372 11.224C40.7652 11.096 40.8532 10.968 40.9012 10.84C40.9652 10.712 40.9972 10.6 40.9972 10.504C40.9972 10.2 40.8212 10.048 40.4692 10.048C40.2452 10.048 39.9892 10.144 39.7012 10.336C39.3492 10.576 39.0132 10.864 38.6932 11.2C38.3732 11.52 38.0692 11.872 37.7812 12.256C37.4772 12.672 37.2052 13.152 36.9652 13.696C36.7412 14.24 36.6292 14.696 36.6292 15.064C36.6292 15.432 36.7332 15.696 36.9412 15.856C37.1652 16 37.4212 16.072 37.7092 16.072C38.1092 16.072 38.4932 15.968 38.8612 15.76C39.1332 15.6 39.3892 15.4 39.6292 15.16C39.8692 14.904 40.0692 14.68 40.2292 14.488C40.3572 14.328 40.5012 14.136 40.6612 13.912C40.8372 13.688 40.9572 13.52 41.0212 13.408C41.0532 13.376 41.0772 13.376 41.0932 13.408C41.1092 13.44 41.1172 13.464 41.1172 13.48C41.0532 13.592 40.9412 13.776 40.7812 14.032C40.6372 14.272 40.4212 14.576 40.1332 14.944C39.7972 15.376 39.4452 15.712 39.0772 15.952C38.7092 16.192 38.2372 16.312 37.6612 16.312ZM42.7248 16.336C42.1808 16.336 41.7968 16.16 41.5728 15.808C41.3648 15.456 41.2608 15.04 41.2608 14.56C41.2608 14.192 41.3088 13.816 41.4048 13.432C41.5008 13.048 41.6288 12.704 41.7888 12.4C41.6608 12.336 41.6128 12.272 41.6448 12.208C41.7728 12.064 41.9168 11.872 42.0768 11.632C42.2368 11.376 42.4048 11.136 42.5808 10.912C42.7728 10.672 42.9488 10.464 43.1088 10.288C43.2688 10.112 43.4048 10.008 43.5168 9.976C43.5648 9.96 43.6048 9.952 43.6368 9.952C43.6848 9.936 43.7248 9.928 43.7568 9.928C43.8368 9.928 43.9008 9.952 43.9488 10C43.9968 10.032 44.0448 10.08 44.0928 10.144C44.1728 10.224 44.2208 10.296 44.2368 10.36C44.2528 10.408 44.3168 10.456 44.4288 10.504C44.2208 10.728 44.0128 10.96 43.8048 11.2C43.5968 11.424 43.4128 11.648 43.2528 11.872C42.9968 12.24 42.7328 12.688 42.4608 13.216C42.2048 13.744 42.0768 14.312 42.0768 14.92C42.0768 15.272 42.1488 15.536 42.2928 15.712C42.4368 15.888 42.6208 15.976 42.8448 15.976C43.0208 15.976 43.2048 15.928 43.3968 15.832C43.5888 15.72 43.7808 15.56 43.9728 15.352C44.3568 14.952 44.7168 14.504 45.0528 14.008C45.4048 13.496 45.7088 12.984 45.9648 12.472C46.2208 11.944 46.4048 11.464 46.5168 11.032C46.6288 10.664 46.7008 10.296 46.7328 9.928C46.7808 9.56 46.8048 9.28 46.8048 9.088C46.9808 9.024 47.1408 8.992 47.2848 8.992C47.4928 8.992 47.6368 9.056 47.7168 9.184C47.7968 9.312 47.8368 9.472 47.8368 9.664C47.8368 9.952 47.7808 10.232 47.6688 10.504C47.5728 10.744 47.4288 10.976 47.2368 11.2C47.0608 11.408 46.8768 11.6 46.6848 11.776C46.2848 12.448 45.8688 13.136 45.4368 13.84C45.0048 14.528 44.5088 15.16 43.9488 15.736C43.7408 15.944 43.5248 16.096 43.3008 16.192C43.0928 16.288 42.9008 16.336 42.7248 16.336Z" fill="white"/>
</svg>
